# xmcd CD database file
#
# Track frame offsets:
#	150
#	16067
#	26947
#	41155
#	54072
#	82072
#	95147
#	116607
#	129090
#	141690
#	164372
#	178947
#	191650
#	218807
#	231497
#	245392
#
# Disc length: 3672 seconds
#
# Revision: 0
# Processed by: cddbd v1.5.2PL0 Copyright (c) Steve Scherf et al.
# Submitted via: CDex 2.12
#
DISCID=e80e5610
DTITLE=Various Artist - Dixieland Riverboat Shuffle CD 1
DYEAR=1993
DGENRE=Jazz
TTITLE0=Louis Armstrong - High Society
TTITLE1=New Orleans Rhythm Kings - Tiger Rag
TTITLE2=Eddie Candon and his Dixieland Band - Louisiana
TTITLE3=New Orleans Feetwarmers - Sweetie Dear
TTITLE4=Louis Armstrong - Muskrat Ramble
TTITLE5=Jones and Collins Astoria Hot Eight - Duet Stomp
TTITLE6=Eddie Condon and his Dixieland Band - At the Jazz Ball
TTITLE7=Louis Armstrong and Earl Hines - Weather Bird
TTITLE8=Johnny Dodds' Black Bottom Stompers - New Orleans Stomp
TTITLE9=Eddie Condon and his Dixieland Band - Royal Garden Blues
TTITLE10=Celestion's Original Tuxedo Jazz Orchestra - As You Like It
TTITLE11=Louis Armstrong - Baby, Won't You Please Come Home
TTITLE12=Kid Ory's Creole Jazz Band - Eh, La Bas
TTITLE13=Eddie Condon and his Dixieland Band - I'll Be A Friend With Pleasure
TTITLE14=New Orleans Owls - That's A Plenty
TTITLE15=Lous Armstrong - New Orleans Function
EXTD=YEAR: 1993
EXTT0=
EXTT1=
EXTT2=
EXTT3=
EXTT4=
EXTT5=
EXTT6=
EXTT7=
EXTT8=
EXTT9=
EXTT10=
EXTT11=
EXTT12=
EXTT13=
EXTT14=
EXTT15=
PLAYORDER=
